<svg width="53" height="53" viewBox="0 0 53 53" fill="none" xmlns="http://www.w3.org/2000/svg">
<g filter="url(#filter0_d_52990_3)">
<circle cx="26.5" cy="22.5" r="22.5" fill="white"/>
<circle cx="26.5" cy="22.5" r="21.5" stroke="#66C05D" stroke-width="2"/>
</g>
<g filter="url(#filter1_d_52990_3)">
<path d="M32.4309 15H19.5691C17.0457 15 15 16.9711 15 19.4025V25.5975C15 28.0289 17.0457 30 19.5691 30H32.4309C34.9543 30 37 28.0289 37 25.5975V19.4025C37 16.9711 34.9543 15 32.4309 15ZM29.3408 22.8014L23.325 25.566C23.1647 25.6396 22.9795 25.527 22.9795 25.3559V19.654C22.9795 19.4805 23.1695 19.368 23.3302 19.4464L29.346 22.3838C29.5249 22.4711 29.5218 22.7183 29.3408 22.8014Z" fill="#66C05D"/>
</g>
<defs>
<filter id="filter0_d_52990_3" x="0" y="0" width="53" height="53" filterUnits="userSpaceOnUse" color-interpolation-filters="sRGB">
<feFlood flood-opacity="0" result="BackgroundImageFix"/>
<feColorMatrix in="SourceAlpha" type="matrix" values="0 0 0 0 0 0 0 0 0 0 0 0 0 0 0 0 0 0 127 0" result="hardAlpha"/>
<feOffset dy="4"/>
<feGaussianBlur stdDeviation="2"/>
<feComposite in2="hardAlpha" operator="out"/>
<feColorMatrix type="matrix" values="0 0 0 0 0 0 0 0 0 0 0 0 0 0 0 0 0 0 0.25 0"/>
<feBlend mode="normal" in2="BackgroundImageFix" result="effect1_dropShadow_52990_3"/>
<feBlend mode="normal" in="SourceGraphic" in2="effect1_dropShadow_52990_3" result="shape"/>
</filter>
<filter id="filter1_d_52990_3" x="11" y="15" width="30" height="23" filterUnits="userSpaceOnUse" color-interpolation-filters="sRGB">
<feFlood flood-opacity="0" result="BackgroundImageFix"/>
<feColorMatrix in="SourceAlpha" type="matrix" values="0 0 0 0 0 0 0 0 0 0 0 0 0 0 0 0 0 0 127 0" result="hardAlpha"/>
<feOffset dy="4"/>
<feGaussianBlur stdDeviation="2"/>
<feComposite in2="hardAlpha" operator="out"/>
<feColorMatrix type="matrix" values="0 0 0 0 0 0 0 0 0 0 0 0 0 0 0 0 0 0 0.25 0"/>
<feBlend mode="normal" in2="BackgroundImageFix" result="effect1_dropShadow_52990_3"/>
<feBlend mode="normal" in="SourceGraphic" in2="effect1_dropShadow_52990_3" result="shape"/>
</filter>
</defs>
</svg>
